<svg width="159" height="16" viewBox="0 0 159 16" fill="none" xmlns="http://www.w3.org/2000/svg">
<path opacity="0.5" d="M151.388 15.2775H153.964V8.66103L159 0.346516H156.072L152.735 6.14326H152.676L149.339 0.346516H146.411L151.388 8.66103V15.2775ZM132.124 15.2775H134.701V4.73799H134.759L141.961 15.2775H144.537V0.287968H142.02V11.0031H141.961L134.642 0.287968H132.066L132.124 15.2775ZM120.941 9.8321L123.224 3.33272H123.283L125.566 9.8321H120.941ZM116.432 15.2775H119.067L120.179 12.0571H126.269L127.381 15.2775H130.016L124.454 0.287968H121.995L116.432 15.2775ZM108.703 7.60709V2.57153H111.221C113.036 2.57153 114.09 3.50838 114.09 5.08931C114.09 6.55313 113.153 7.60709 111.045 7.60709H108.703ZM106.185 15.2775H108.762V9.94921H111.338C114.558 9.94921 116.725 8.42683 116.725 5.14786C116.725 2.39587 115.202 0.287968 111.631 0.287968H106.244L106.185 15.2775ZM87.624 15.2775H90.2003V5.26496L94.299 12.4084H95.9385L100.037 5.26496H100.096V15.2775H102.672V0.287968H100.096L95.1773 9.24657H95.1188L90.2003 0.287968H87.624V15.2775ZM77.3187 13.0525C74.391 13.0525 72.4002 10.7104 72.4002 7.78274C72.4002 4.8551 74.391 2.51298 77.3187 2.51298C80.0706 2.51298 82.1786 4.67944 82.1786 7.78274C82.1786 10.8275 80.0706 13.0525 77.3187 13.0525ZM77.3187 15.4532C81.6516 15.4532 84.872 12.3499 84.872 7.78274C84.872 3.21561 81.6516 0.112305 77.3187 0.112305C72.8101 0.112305 69.7653 3.33272 69.7653 7.78274C69.7653 12.2328 72.8101 15.4532 77.3187 15.4532ZM62.3877 15.3946C65.0225 15.3946 67.0133 14.165 68.3015 12.5841L66.4278 11.0031C65.491 12.1742 64.0857 13.0525 62.3877 13.0525C59.5186 13.0525 57.5278 10.9446 57.5278 7.8413C57.5278 4.67944 59.5186 2.57153 62.3877 2.57153C63.9686 2.57153 65.3153 3.21561 66.4278 4.62088L68.3015 3.03995C66.7206 1.1077 64.6127 0.170859 62.3877 0.170859C57.5863 0.170859 54.8929 3.62548 54.8929 7.8413C54.8343 12.7012 58.3475 15.3946 62.3877 15.3946ZM45.056 9.8321L47.281 3.33272H47.3396L49.6231 9.8321H45.056ZM40.4889 15.2775H43.1237L44.2362 12.0571H50.3258L51.4383 15.2775H54.1903L48.5692 0.346516H46.1099L40.4889 15.2775ZM31.1204 15.2775H33.6967V9.36368H39.7862V7.08011H33.6967V2.63008H40.8987V0.346516H31.1204V15.2775ZM20.8151 13.0525C17.8874 13.0525 15.8966 10.7104 15.8966 7.78274C15.8966 4.8551 17.8874 2.51298 20.8151 2.51298C23.5671 2.51298 25.7335 4.67944 25.7335 7.78274C25.7335 10.8275 23.5671 13.0525 20.8151 13.0525ZM20.8151 15.4532C25.148 15.4532 28.3684 12.3499 28.3684 7.78274C28.3684 3.21561 25.148 0.112305 20.8151 0.112305C16.3065 0.112305 13.2617 3.33272 13.2617 7.78274C13.2617 12.2328 16.365 15.4532 20.8151 15.4532ZM6.29395 15.4532C8.69462 15.4532 11.4466 14.0479 11.4466 10.9446C11.4466 8.07551 9.39725 7.37287 6.82092 6.37747C5.00578 5.67484 4.01038 5.32352 4.01038 4.21102C4.01038 3.09851 4.94722 2.45443 6.11828 2.45443C7.11368 2.45443 8.3433 2.9814 9.57291 3.9768L11.0953 1.986C9.57291 0.756391 7.93342 0.112305 6.17684 0.112305C3.60051 0.112305 1.43405 1.92745 1.43405 4.26956C1.43405 7.02155 3.65907 8.01696 5.94263 8.8367C7.81632 9.48078 8.81172 9.9492 8.81172 11.2374C8.81172 12.3499 7.99198 13.0525 6.3525 13.0525C5.06433 13.0525 3.60051 12.4084 2.48801 11.1203L0.907074 13.0525C2.488 14.692 4.42025 15.4532 6.29395 15.4532Z" fill="white"/>
</svg>
