<svg width="146" height="27" viewBox="0 0 146 27" fill="none" xmlns="http://www.w3.org/2000/svg">
<g opacity="0.5">
<path d="M56.5578 6.12216H62.0765L62.9635 1.67507H57.4449L56.5578 6.12216ZM55.9869 8.98321H61.507L57.9997 26.5429C57.745 26.6312 56.9545 26.9439 55.864 26.9439C54.3899 26.9439 53.0403 26.3734 53.0403 24.3491C53.0403 23.9684 53.0856 23.5339 53.1837 23.0422C54.2801 17.5625 55.9869 8.98321 55.9869 8.98321ZM110.79 8.58212C107.117 8.58212 105.656 10.7222 104.971 12.0244H104.905L105.117 8.98672H99.6631C99.6279 9.65393 99.3908 11.7607 99.0395 13.5773L97.542 21.1707C97.3619 22.1029 97.0296 23.4813 97.0296 24.281C97.0296 25.9843 97.8991 26.9439 99.8372 26.9439C100.923 26.9439 101.707 26.6491 101.992 26.5429L103.814 17.3979C104.322 14.8722 106.157 13.2204 108.341 13.2204C110.102 13.2204 110.943 14.4974 110.943 15.5419C110.943 16.4513 110.715 17.4587 110.536 18.3502L109.752 22.2664C109.66 22.7366 109.459 23.6402 109.459 24.3479C109.459 26.0786 110.44 26.9439 112.305 26.9439C113.322 26.9439 113.966 26.6909 114.424 26.5429L116.061 18.3444C116.417 16.4919 116.547 15.5155 116.547 14.3363C116.547 10.9418 114.552 8.58212 110.79 8.58212ZM86.2735 12.8276C83.1892 12.8276 81.4794 15.9643 81.4794 18.7608C81.4794 21.1205 82.5509 22.6997 84.9853 22.6997C87.7373 22.6997 89.892 20.3697 89.892 16.394C89.892 14.575 88.9171 12.8276 86.2735 12.8276ZM84.6472 26.945C78.7377 26.945 75.9111 23.4193 75.9111 18.9255C75.9111 12.7596 80.1664 8.58212 86.7419 8.58212C92.4493 8.58212 95.478 12.0185 95.478 16.4322C95.478 23.0469 90.9343 26.945 84.6457 26.945H84.6472ZM63.9794 22.7164C63.8535 23.3489 63.7745 23.7917 63.7745 24.3348C63.7745 26.3484 65.1271 26.9439 66.5602 26.9439C67.7063 26.9439 68.4148 26.6324 68.6754 26.5429L71.3293 13.2322L75.6197 13.2311L76.4673 8.98321H72.1768L72.3847 7.93643C72.7741 5.97417 73.7007 5.11125 75.308 5.11125C76.3809 5.11125 77.2475 5.3011 77.5491 5.37986L78.3571 1.33839C78.0131 1.25246 76.4263 0.865723 74.0798 0.865723C70.3412 0.865723 67.8908 3.12513 67.1662 6.76434L66.7226 8.98321H63.9296L63.0806 13.2311H65.8765C65.8765 13.2311 64.7743 18.7346 63.9794 22.7164ZM51.2764 8.58212C48.5053 8.58212 46.983 10.4955 46.3857 12.022H46.3228L46.535 8.98321H41.0794C41.0311 10.0358 40.8086 11.8167 40.2523 14.618C39.6887 17.4563 39.1413 20.2863 38.5748 23.041C38.484 23.4761 38.4372 23.919 38.4342 24.3635C38.4342 25.8065 39.15 26.9427 41.2682 26.9427C42.3178 26.9427 43.0467 26.6718 43.3966 26.5429L45.02 18.4016C45.604 15.2876 46.6668 13.2287 49.7481 13.2287C51.1505 13.2287 52.4826 13.5259 52.7607 13.607L53.6946 8.92348C53.4911 8.85424 52.6846 8.58212 51.2749 8.58212H51.2764ZM131.326 16.1005C131.62 14.4903 130.679 12.8276 128.552 12.8276C125.953 12.8276 124.812 14.5929 124.302 16.1005H131.326ZM133.788 22.6339C133.788 25.0772 131.41 26.9499 127.202 26.9499C121.383 26.9499 118.539 23.3442 118.539 18.9303C118.539 14.5488 121.462 8.58578 128.598 8.58578C133.303 8.58578 136.821 10.9108 136.821 16.2353C136.821 17.5434 136.527 18.9662 136.402 19.5366H123.897C123.875 20.8138 124.956 23.0279 129.303 23.0279C131.242 23.0279 133.435 22.3463 133.788 22.1733V22.6339ZM31.6053 16.1005C31.9002 14.4903 30.9583 12.8276 28.8314 12.8276C26.2312 12.8276 25.0918 14.5929 24.5825 16.1005H31.6053ZM34.0677 22.6339C34.0677 25.0772 31.6904 26.9499 27.4822 26.9499C21.6635 26.9499 18.8188 23.3442 18.8188 18.9303C18.8188 14.5488 21.7414 8.58578 28.8769 8.58578C33.5831 8.58578 37.0992 10.9108 37.0992 16.2353C37.0992 17.5434 36.8065 18.9662 36.6806 19.5366H24.1751C24.1546 20.8138 25.2367 23.0279 29.5828 23.0279C31.5203 23.0279 33.7149 22.3463 34.0677 22.1733V22.6339ZM0.905167 3.00817H6.45657V20.4676C6.45657 23.0923 7.76991 24.4327 9.87884 24.4327C10.0945 24.4327 10.2204 24.4052 10.2622 24.3957C9.3384 25.7873 8.14011 26.9284 5.389 26.9284C2.47731 26.9284 0.905167 24.9172 0.905167 21.9012V3.00817Z" fill="white"/>
<path d="M8.00239 18.6636V20.4969C8.00239 22.267 8.9634 22.9008 10.013 22.9008C11.0855 22.9008 11.6595 22.1762 12.1854 21.355C13.0685 19.9765 23.8515 3.00761 23.8515 3.00761H18.0808L8.00239 18.6636Z" fill="white"/>
<path d="M141.808 11.0692H142.418C142.986 11.0692 143.266 10.7971 143.266 10.4666C143.266 10.266 143.165 9.97237 142.638 9.97237H142.028L141.808 11.0692ZM141.79 9.71093H142.692C143.235 9.71093 143.563 10.0011 143.563 10.4247C143.563 11.1301 142.904 11.2781 142.594 11.3128L143.199 12.7939H142.871L142.292 11.3306H141.755L141.464 12.7939H141.176L141.79 9.71093ZM142.033 13.701C143.521 13.701 144.551 12.6329 144.696 11.308C144.842 9.98437 143.887 8.9149 142.557 8.9149C141.083 8.9149 140.038 9.98437 139.893 11.308C139.75 12.6329 140.704 13.701 142.033 13.701ZM142.591 8.59622C144.093 8.59622 145.182 9.81369 145.018 11.3091C144.854 12.8035 143.641 14.0209 141.998 14.0209C140.498 14.0209 139.41 12.8035 139.571 11.3091C139.737 9.81369 140.99 8.59622 142.591 8.59622Z" fill="white"/>
</g>
</svg>
